<svg preserveAspectRatio="none" width="100%" height="100%" overflow="visible" style="display: block;" viewBox="0 0 357 295" fill="none" xmlns="http://www.w3.org/2000/svg">
<g id="Block 1">
<path id="Vector" d="M345.469 4.48478C347.412 5.72374 351.448 2.47017 354.745 6.91065C356.938 9.86229 356.448 13.7301 356.302 17.2961C355.563 35.7555 345.641 47.963 337.496 63.4708C331.163 75.5325 325.569 88.0626 321.986 101.244C322.689 102.04 328.069 96.3241 328.777 95.8192C332.308 93.31 341.464 89.2547 345.709 88.8383C349.954 88.4218 357.49 89.3797 356.724 95.1268C356.318 98.1565 351.328 102.441 349.032 104.627C341.548 111.764 331.965 119.802 323.788 126.174C313.7 134.034 302.893 140.713 291.367 146.268L291.716 237.576L290.758 238.701L147.403 295C98.6291 276.38 49.386 258.831 1.05963 239.122C-0.971548 236.811 0.533607 234.411 0.58048 231.985C0.882553 216.623 0.997132 201.037 1.1065 185.727C1.39295 144.758 0.616937 103.706 1.35129 62.7889L2.36167 61.7217C49.2871 42.6479 96.0875 23.267 143.377 5.10947C145.388 4.82836 147.7 5.8695 149.596 6.62954C172.137 15.6563 194.589 25.2088 217.182 34.2042C230.848 39.6442 244.681 44.6782 258.269 50.316C274.06 40.1127 288.784 28.3478 304.356 17.8687C308.335 15.193 316.132 9.01376 320.673 9.24281C322.757 9.34693 323.038 10.0653 324.324 10.8045C327.621 6.25473 337.235 -2.94378 343.058 0.929274C344.521 1.90274 345.292 4.37026 345.474 4.48999L345.469 4.48478ZM342.141 4.17764C340.74 2.56387 337.662 4.16203 336.194 4.98453C334.261 6.06212 327.605 11.4032 326.303 13.0222C325.262 14.3184 324.897 19.0712 323.845 21.2264C322.481 24.0166 319.163 26.7132 317.58 29.5139L276.222 71.3471C275.425 71.8364 273.993 71.8104 273.665 70.764C273.404 69.6136 274.029 68.7078 274.67 67.8592C285.399 53.6164 304.252 40.9404 315.455 26.3488C317.158 24.1312 323.007 16.0155 321.402 13.4751C317.981 11.8873 313.554 15.8853 310.606 17.8583C296.539 27.2702 281.68 38.0096 267.956 48.0046C256.483 56.365 246.66 63.7832 237.76 75.0015C230.036 84.7362 218.838 107.1 207.485 110.754C197.532 113.956 185.105 111.369 174.809 111.108C175.022 123.175 178.892 136.226 184.605 146.804C186.329 150 193.719 161.942 196.928 162.557C201.058 163.348 210.636 160.386 215.25 159.584C249.223 153.676 284.81 149.829 313.627 129.516C324.897 121.572 341.495 108.073 350.808 98.0628C353.078 95.6266 355.052 93.0966 350.308 92.4302C342.131 91.285 329.699 98.8957 323.548 104.086C317.689 109.031 314.637 115.794 309.528 121.26C307.554 123.368 305.179 125.07 306.148 120.479L315.46 108.995C320.533 93.7473 325.48 78.8225 332.834 64.5015C340.188 50.1806 349.657 38.3011 352.683 22.7517C349.823 26.4113 347.428 30.8518 344.594 34.6728C334.892 47.7704 323.871 59.3218 315.33 73.5178C314.174 75.444 310.247 83.9761 309.293 84.6373C308.679 85.0641 308.205 85.262 307.445 85.1214C305.57 83.7992 310.528 75.1316 311.512 73.3409C317.949 61.6072 327.892 49.8683 336.063 39.1393C340.344 33.5171 352.12 20.8255 352.714 14.2039C352.964 11.4552 352.86 6.94188 348.912 7.76959C346.318 8.31619 342.683 16.9317 340.943 19.5866C332.157 33.0382 318.173 45.0217 307.976 57.8486C303.231 63.8196 298.612 72.2789 293.903 77.5731C293.44 78.0937 292.372 79.4992 291.643 79.3743L290.289 77.5939C294.799 69.0253 300.815 61.1647 306.934 53.6893C316.627 41.8462 329.006 30.7997 337.511 18.2383C339.318 15.573 344.667 7.05641 342.157 4.17244L342.141 4.17764ZM143.596 9.24802L4.73137 65.121V233.006C4.73137 233.219 3.35642 234.588 4.99699 234.312C6.9188 233.984 11.8665 231.767 14.0852 230.913C56.5993 214.53 98.6707 196.847 141.362 180.87L143.601 179.47V9.24802H143.596ZM256.04 155.924C248.77 180.521 226.666 189.475 204.802 174.957C180.085 158.543 166.616 122.67 171.751 93.7785C176.715 65.855 198.698 48.8531 225.781 64.59C228.859 66.3756 232.609 68.9785 234.598 71.8885L235.385 72.1331C239.02 67.5365 242.983 63.0596 247.337 59.124C248.426 58.1402 254.566 54.0485 254.368 53.1687L146.716 9.76859L147.487 179.735L288.174 234.822L287.654 147.507C277.284 150.901 266.722 153.655 256.04 155.924ZM284.018 237.941C283.971 237.217 283.232 237.139 282.737 236.889C276.67 233.818 268.175 230.949 261.649 228.341C223.01 212.885 184.006 198.33 145.325 182.984L6.2834 237.685L146.976 290.893L284.018 237.941Z" fill="var(--fill-0, black)"/>
<path id="Vector_2" d="M143.595 9.24885V179.476L141.356 180.876C98.6644 196.853 56.593 214.536 14.0789 230.919C11.8655 231.773 6.91772 233.99 4.99071 234.318C3.35535 234.594 4.72509 233.225 4.72509 233.012V65.1219L143.595 9.24885Z" fill="var(--fill-0, #886EFF)"/>
<path id="Vector_3" d="M284.018 237.941L146.976 290.894L6.28273 237.686L145.325 182.979C184.006 198.326 223.009 212.881 261.649 228.337C268.18 230.95 276.669 233.813 282.736 236.884C283.226 237.134 283.971 237.212 284.018 237.936V237.941Z" fill="var(--fill-0, #886EFF)"/>
<path id="Vector_4" d="M342.14 4.17927C344.646 7.06324 339.297 15.5798 337.495 18.2451C328.99 30.8117 316.61 41.8531 306.918 53.6961C300.798 61.1767 294.778 69.0374 290.273 77.6008L291.627 79.3811C292.361 79.5061 293.429 78.1005 293.887 77.5799C298.595 72.2857 303.21 63.8264 307.959 57.8555C318.157 45.0286 332.141 33.0502 340.927 19.5934C342.661 16.9385 346.302 8.32302 348.895 7.77642C352.843 6.9435 352.947 11.4621 352.697 14.2107C352.104 20.8324 340.328 33.5239 336.047 39.1461C327.875 49.8751 317.933 61.614 311.496 73.3477C310.511 75.1385 305.553 83.806 307.428 85.1282C308.189 85.2688 308.663 85.071 309.277 84.6441C310.23 83.983 314.157 75.4508 315.313 73.5247C323.849 59.3287 334.87 47.7824 344.578 34.6796C347.411 30.8534 349.807 26.4181 352.666 22.7585C349.645 38.3132 339.891 50.7392 332.818 64.5084C325.745 78.2775 320.516 93.7541 315.444 109.002L306.131 120.485C305.163 125.077 307.543 123.375 309.511 121.266C314.621 115.8 317.678 109.043 323.532 104.093C329.683 98.8974 342.114 91.2866 350.291 92.4371C355.036 93.1034 353.057 95.6334 350.791 98.0697C341.479 108.075 324.881 121.579 313.61 129.523C284.788 149.835 249.201 153.682 215.234 159.591C210.619 160.393 201.036 163.36 196.911 162.563C193.703 161.949 186.313 150.007 184.589 146.811C178.881 136.233 175.006 123.182 174.792 111.115C185.089 111.375 197.515 113.963 207.468 110.761C218.822 107.107 230.019 84.743 237.743 75.0083C246.644 63.79 256.466 56.3718 267.94 48.0114C281.663 38.0112 296.517 27.2771 310.59 17.8651C313.543 15.8921 317.964 11.8889 321.386 13.4819C322.995 16.0275 317.141 24.138 315.438 26.3556C304.236 40.9473 285.382 53.6232 274.653 67.8661C274.013 68.7146 273.393 69.6256 273.648 70.7709C273.976 71.8172 275.408 71.8432 276.205 71.3539L317.563 29.5207C319.152 26.7148 322.469 24.0235 323.829 21.2332C324.881 19.078 325.245 14.3252 326.287 13.029C327.589 11.4048 334.245 6.06894 336.177 4.99136C337.651 4.16885 340.724 2.56549 342.125 4.18447L342.14 4.17927ZM251.066 126.529C253.164 124.515 257.284 118.887 258.727 116.253C262.352 109.647 266.659 95.3367 265.279 88.007C264.977 86.4088 263.112 85.2323 262.284 87.0648C261.039 89.829 261.159 96.888 260.482 100.334C259.43 105.686 256.998 112.203 254.071 116.795C251.987 120.053 246.107 124.515 249.43 127.742C249.852 127.185 250.592 126.982 251.066 126.524V126.529Z" fill="var(--fill-0, #BAF4F1)"/>
<path id="Vector_5" d="M256.04 155.925C266.727 153.655 277.284 150.901 287.653 147.507L288.174 234.823L147.486 179.736L146.715 9.76912L254.373 53.1744C254.571 54.0542 248.43 58.1459 247.342 59.1298C242.983 63.0653 239.019 67.5422 235.389 72.1389L234.603 71.8942C232.613 68.9842 228.858 66.3813 225.785 64.5958C198.703 48.8589 176.719 65.8608 171.756 93.7842C166.626 122.676 180.089 158.549 204.807 174.962C226.676 189.481 248.774 180.527 256.045 155.93L256.04 155.925Z" fill="var(--fill-0, #886EFF)"/>
<path id="Vector_6" d="M251.066 126.528C250.592 126.986 249.852 127.189 249.43 127.746C246.108 124.513 251.988 120.057 254.071 116.798C257.003 112.207 259.43 105.689 260.482 100.338C261.159 96.8915 261.045 89.8325 262.284 87.0683C263.107 85.2359 264.977 86.4124 265.279 88.0105C266.664 95.3454 262.352 109.656 258.727 116.257C257.279 118.891 253.159 124.513 251.066 126.533V126.528Z" fill="var(--fill-0, black)"/>
</g>
</svg>
