<svg preserveAspectRatio="none" width="100%" height="100%" overflow="visible" style="display: block;" viewBox="0 0 1135 1135" fill="none" xmlns="http://www.w3.org/2000/svg">
<g id="Group 53">
<path id="Vector" d="M1134.97 1.12282C1134.97 1.03178 1134.96 0.940742 1134.93 0.859818C1134.93 0.829471 1134.91 0.799125 1134.9 0.778894C1134.88 0.718201 1134.86 0.667623 1134.83 0.617046C1134.81 0.586699 1134.79 0.556353 1134.77 0.536122C1134.74 0.49566 1134.7 0.445082 1134.66 0.414736C1134.63 0.394505 1134.61 0.364158 1134.58 0.343927C1134.55 0.323696 1134.53 0.303465 1134.5 0.29335C1134.48 0.273119 1134.45 0.273119 1134.43 0.252888C1134.41 0.252888 1134.4 0.232657 1134.38 0.222541L1134.04 0.0708085H1133.87L1131.52 1.14305L1061.71 33.108L1020.54 51.9532L991.611 38.712L909.958 1.3049L907.561 0.182079L907.601 0.161848L907.247 0L906.823 0.192195C906.823 0.192195 906.782 0.192195 906.762 0.20231L904.749 1.12282L903.07 1.8916L825.2 37.5386L793.771 51.9229L764.84 38.6817L683.197 1.3049L680.86 0.151733H680.881L680.688 0.0505775L680.527 0.121386C680.415 0.121386 680.294 0.151733 680.183 0.20231L678.17 1.12282L675.995 2.11414L602.869 35.5863L567.191 51.9229L541.316 40.0776L464.548 4.93637L463.132 4.28897L454.322 0.192195L454.18 0.121386L454.038 0.060693L451.59 1.12282L376.29 35.5965L340.612 51.933L311.682 38.6918L230.029 1.3049L227.621 0.182079L227.5 0.131502L227.338 0.060693L227.024 0.20231L225.011 1.12282L223.201 1.95229L149.711 35.5965L114.033 51.933L85.1025 38.6918L3.4393 1.3049L1.06214 0.171964L0.586704 0.394505C0.586704 0.394505 0.556358 0.414736 0.536126 0.424851C0.485548 0.455198 0.445086 0.485544 0.394508 0.515891C0.364161 0.536122 0.333815 0.556353 0.313583 0.586699C0.273121 0.627161 0.242774 0.667623 0.202312 0.708085C0.182081 0.738432 0.161849 0.758663 0.141618 0.789009C0.111272 0.839587 0.0910403 0.90028 0.0708092 0.950857C0.0606936 0.981204 0.050578 1.00143 0.0404624 1.03178C0.0202312 1.12282 0 1.21386 0 1.3049V139.614L0.829479 139.23L111.615 189.949L48.6459 218.778L0.627167 240.759L0 240.466V378.947C0 378.856 0.0101156 378.765 0.0404624 378.674C0.0202312 378.765 0 378.856 0 378.947V517.256L0.829479 516.872L111.615 567.591L60.9566 590.786L0.627167 618.411L0 618.118V756.619C0 756.528 0.0101156 756.437 0.0404624 756.346C0.0202312 756.437 0 756.528 0 756.619V894.929L0.829479 894.544L111.615 945.263L32.0664 981.679L0.637282 996.064L0.0101156 995.77V1134.54C0.0910403 1134.66 0.182081 1134.76 0.293352 1134.84C0.34393 1134.87 0.404624 1134.89 0.465317 1134.92C0.586704 1134.97 0.708092 1135 0.839594 1135C0.971097 1135 1.09248 1134.97 1.21387 1134.92C1.2341 1134.92 1.24422 1134.92 1.26445 1134.91L114.134 1083.24L227.004 1134.91C227.004 1134.91 227.034 1134.91 227.055 1134.92C227.176 1134.97 227.297 1135 227.429 1135C227.56 1135 227.682 1134.97 227.803 1134.92C227.823 1134.92 227.834 1134.92 227.854 1134.91L340.724 1083.24L453.593 1134.91C453.593 1134.91 453.624 1134.91 453.644 1134.92C453.765 1134.97 453.887 1135 454.018 1135C454.15 1135 454.271 1134.97 454.392 1134.92C454.413 1134.92 454.423 1134.92 454.443 1134.91L567.313 1083.24L680.183 1134.91C680.183 1134.91 680.213 1134.91 680.233 1134.92C680.355 1134.97 680.476 1135 680.607 1135C680.739 1135 680.86 1134.97 680.982 1134.92C681.002 1134.92 681.012 1134.92 681.032 1134.91L793.993 1083.2L906.954 1134.91C906.954 1134.91 906.984 1134.91 907.005 1134.92C907.126 1134.97 907.247 1135 907.379 1135C907.51 1135 907.632 1134.97 907.753 1134.92C907.773 1134.92 907.783 1134.92 907.804 1134.91L1020.68 1083.23L1133.56 1134.91C1133.69 1134.97 1133.85 1135 1133.99 1135C1134.18 1135 1134.37 1134.95 1134.53 1134.84C1134.83 1134.66 1135 1134.33 1135 1133.99V1133.18L1132.98 1132.41L1021.79 1081.51V947.024L1132.98 997.925V997.996L1135 998.916V997.743V995.517L1133.79 996.074L1107.91 984.228L1023.2 945.446L1133.99 894.544L1135 895.01V892.693H1134.81L1134.41 892.511C1134.14 892.39 1133.84 892.39 1133.56 892.511L1133.2 892.683H1132.98L1021.79 943.584V808.917L1132.98 758.015L1133.14 757.945L1134.41 757.358C1134.41 757.358 1134.47 757.317 1134.5 757.297L1135 757.065V756.437C1135 756.417 1135 756.397 1135 756.377C1135 756.356 1135 756.336 1135 756.326V755.517L1132.98 754.748L1021.79 703.847V569.361L1132.98 620.262V620.333L1135 621.254V620.08V617.855L1133.79 618.411L1112.77 608.791L1023.2 567.793L1133.99 516.892L1135 517.357V515.041H1134.81L1134.41 514.859C1134.14 514.738 1133.84 514.738 1133.56 514.859L1133.2 515.031H1132.98L1021.79 565.932V431.264L1132.98 380.363L1133.14 380.292L1134.41 379.706C1134.41 379.706 1134.47 379.665 1134.5 379.645L1135 379.412V378.785C1135 378.765 1135 378.755 1135 378.735C1135 378.714 1135 378.704 1135 378.694V377.885L1132.98 377.116L1021.79 326.215V191.729L1132.98 242.63V242.701L1135 243.622V242.448V240.223L1133.79 240.779L1107.91 228.934L1023.2 190.151L1133.99 139.25L1135 139.715V137.399H1134.81L1134.41 137.217C1134.14 137.095 1133.84 137.095 1133.56 137.217L1133.2 137.389H1132.98L1021.79 188.29V53.6021L1132.98 2.70084L1133.14 2.63003L1134.41 2.04333C1134.41 2.04333 1134.47 2.00287 1134.5 1.98264L1135 1.74998V1.12282H1134.97ZM1061.71 410.73L1020.54 429.575L991.611 416.334L909.958 378.957L1020.74 328.056L1131.53 378.775L1061.72 410.73H1061.71ZM1083 778.661L1020.55 807.248L997.559 796.727L909.968 756.63L1020.75 705.728L1131.54 756.447L1083.01 778.661H1083ZM942.763 979.778L907.146 996.084L878.216 982.843L796.563 945.466L907.348 894.565L1018.13 945.284L942.763 979.788V979.778ZM716.073 979.747L680.395 996.084L654.519 984.239L569.811 945.456L680.597 894.554L791.383 945.274L716.083 979.747H716.073ZM262.894 979.747L227.216 996.084L198.286 982.843L116.633 945.466L227.419 894.565L338.205 945.284L262.904 979.757L262.894 979.747ZM114.023 807.248L91.0302 796.727L3.4393 756.63L114.225 705.728L225.011 756.447L164.682 784.063L114.033 807.248H114.023ZM114.023 429.585L85.0924 416.344L3.4393 378.957L114.225 328.056L225.011 378.775L182.506 398.237L114.023 429.585ZM227.419 139.24L338.205 189.959L280.273 216.482L227.227 240.769L198.296 227.528L116.643 190.151L227.429 139.25L227.419 139.24ZM453.998 139.24L564.784 189.959L506.852 216.482L453.806 240.769L427.93 228.924L343.222 190.141L454.008 139.24H453.998ZM680.587 139.24L791.373 189.959L733.441 216.482L680.395 240.769L654.519 228.924L569.811 190.141L680.597 139.24H680.587ZM907.348 139.24L1018.13 189.959L942.763 224.463L907.146 240.769L878.216 227.528L796.563 190.151L907.348 139.25V139.24ZM116.633 567.783L227.419 516.882L338.205 567.601L295.699 587.063L227.216 618.411L204.214 607.881L116.633 567.783ZM228.43 620.08L339.621 569.179V703.847L228.43 754.748V620.08ZM792.971 431.436V565.922L681.781 515.021V380.535L792.971 431.436ZM906.175 380.353V515.021L794.984 565.922V431.254L906.175 380.353ZM453.007 380.353V515.021L341.816 565.922V431.254L453.007 380.353ZM679.596 380.353V515.021L568.405 565.922V431.254L679.596 380.353ZM635.674 398.227L567.191 429.575L541.316 417.73L456.608 378.947L567.394 328.046L678.18 378.765L635.674 398.227ZM566.382 431.436V565.922L455.192 515.021V380.535L566.382 431.436ZM409.085 398.227L340.602 429.575L311.672 416.334L230.018 378.957L340.804 328.056L451.59 378.775L409.085 398.237V398.227ZM339.793 431.436V565.922L228.602 515.021V380.535L339.793 431.436ZM341.806 569.361L452.997 620.262V754.748L341.806 703.847V569.361ZM455.02 620.08L566.21 569.179V703.847L455.02 754.748V620.08ZM522.278 587.063L453.796 618.411L432.765 608.781L343.212 567.783L453.998 516.882L564.784 567.601L522.278 587.063ZM568.385 569.361L679.576 620.262V754.748L568.385 703.847V569.361ZM681.599 620.08L792.789 569.179V703.847L681.599 754.748V620.08ZM748.867 587.063L680.385 618.411L659.355 608.781L569.801 567.783L680.587 516.882L791.373 567.601L748.867 587.063ZM795.156 569.361L906.347 620.262V754.748L795.156 703.847V569.361ZM854.1 401.97L793.781 429.585L764.85 416.344L683.197 378.967L793.983 328.066L904.769 378.785L854.11 401.98L854.1 401.97ZM681.599 377.106V242.438L792.789 191.537V326.205L681.599 377.106ZM455.02 377.106V242.438L566.21 191.537V326.205L455.02 377.106ZM228.43 377.106V242.438L339.621 191.537V326.205L228.43 377.106ZM228.612 758.208L339.803 809.109V943.594L228.612 892.693V758.208ZM681.781 758.208L792.971 809.109V943.594L681.781 892.693V758.208ZM908.36 620.08L1019.55 569.179L1019.71 569.108H1019.73V703.857H1019.55L908.36 754.758V620.09V620.08ZM942.763 602.105L907.146 618.411L884.143 607.881L796.563 567.783L907.348 516.882L1018.13 567.601L942.763 602.105ZM908.36 242.428L1019.55 191.527L1019.71 191.456H1019.73V326.205H1019.55L908.36 377.106V242.438V242.428ZM906.337 242.62V377.106L795.146 326.205V191.719L906.337 242.62ZM679.576 242.62V377.106L568.385 326.205V191.719L679.576 242.62ZM452.986 242.62V377.106L341.796 326.205V191.719L452.986 242.62ZM226.407 242.62V377.106L115.217 326.205V191.719L226.407 242.62ZM115.237 431.254L226.427 380.353V515.021L115.237 565.922V431.254ZM226.407 620.262V754.748L115.217 703.847V569.361L226.407 620.262ZM115.237 808.917L226.427 758.015V892.683L115.237 943.584V808.917ZM341.826 808.917L453.017 758.015V892.683L341.826 943.584V808.917ZM391.261 784.063L340.612 807.248L317.62 796.727L230.029 756.63L340.815 705.728L451.601 756.447L391.271 784.063H391.261ZM455.192 758.208L566.382 809.109V943.594L455.192 892.693V758.208ZM567.191 807.248L546.181 797.628L456.608 756.619L567.394 705.718L678.18 756.437L617.85 784.053L567.202 807.237L567.191 807.248ZM568.405 808.917L679.596 758.015V892.683L568.405 943.584V808.917ZM793.781 807.248L770.788 796.727L683.197 756.63L793.983 705.728L904.769 756.447L836.276 787.806L793.791 807.258L793.781 807.248ZM794.995 808.917L906.185 758.015V892.683L794.995 943.584V808.917ZM1019.73 943.594L908.542 892.693V758.208L1019.73 809.109V943.594ZM1019.73 565.922L908.542 515.021V380.535L1019.73 431.436V565.922ZM906.175 2.70084V137.369L794.984 188.27V53.6021L906.175 2.70084ZM679.596 2.70084V137.369L568.405 188.27V53.6021L679.596 2.70084ZM453.007 2.70084V137.369L341.816 188.27V53.6021L453.007 2.70084ZM226.427 2.70084V137.369L115.237 188.27V53.6021L226.427 2.70084ZM113.032 191.527V326.195L1.84104 377.106V242.438L113.032 191.537V191.527ZM0.394508 378.158C0.394508 378.158 0.434971 378.118 0.465317 378.107C0.485548 378.097 0.515895 378.087 0.536126 378.077C0.485548 378.107 0.445086 378.138 0.394508 378.168V378.158ZM2.02312 380.535L113.214 431.436V565.922L2.02312 515.021V380.535ZM113.032 569.179V703.847L1.84104 754.748V620.08L113.032 569.179ZM0.404624 755.83C0.404624 755.83 0.445086 755.79 0.475433 755.78C0.495664 755.77 0.526011 755.76 0.546242 755.75C0.495664 755.78 0.455202 755.81 0.404624 755.841V755.83ZM2.02312 758.208L113.214 809.109V943.594L2.02312 892.693V758.208ZM1019.73 53.7841V188.27L908.542 137.369V2.88292L1019.73 53.7841ZM792.971 53.7841V188.27L681.781 137.369V2.88292L792.971 53.7841ZM464.538 4.93637H464.518L463.142 4.29909L464.538 4.93637ZM566.382 53.7841V188.27L455.192 137.369V2.88292L566.382 53.7841ZM339.793 53.7841V188.27L228.602 137.369V2.88292L339.793 53.7841ZM113.214 53.7841V188.27L2.02312 137.369V2.88292L113.214 53.7841ZM113.032 1081.52L1.84104 1132.42V997.753L113.032 946.852V1081.52ZM115.217 947.034L226.407 997.935V1132.42L115.217 1081.52V947.034ZM339.621 1081.52L228.43 1132.42V997.753L339.621 946.852V1081.52ZM341.806 947.034L452.997 997.935V1132.42L341.806 1081.52V947.034ZM453.806 996.084L427.93 984.239L343.222 945.456L454.008 894.554L564.794 945.274L489.494 979.747L453.816 996.084H453.806ZM566.2 1081.52L455.009 1132.42V997.753L566.2 946.852V1081.52ZM568.385 947.034L679.576 997.935V1132.42L568.385 1081.52V947.034ZM792.789 1081.52L681.599 1132.42V997.753L792.789 946.852V1081.52ZM795.156 947.034L906.347 997.935V1132.42L795.156 1081.52V947.034ZM908.36 1132.42V997.753L1019.55 946.852L1019.71 946.781H1019.73V1081.53H1019.55L908.36 1132.43V1132.42Z" fill="url(#paint0_linear_1624_27268)"/>
</g>
<defs>
<linearGradient id="paint0_linear_1624_27268" x1="109" y1="575" x2="1268.33" y2="846.158" gradientUnits="userSpaceOnUse">
<stop stop-color="white"/>
<stop offset="0.25" stop-color="#B0EFFF"/>
<stop offset="0.634615" stop-color="#EADAFA"/>
<stop offset="1" stop-color="white"/>
</linearGradient>
</defs>
</svg>
