<svg preserveAspectRatio="none" width="100%" height="100%" overflow="visible" style="display: block;" viewBox="0 0 931 930" fill="none" xmlns="http://www.w3.org/2000/svg">
<g id="Blocks Vectors">
<g id="Vector">
</g>
<path id="Vector_2" d="M186.402 0.0492432L186.145 0.165243C186.27 0.107243 186.402 0.0989575 186.535 0.107243L186.402 0.0492432Z" fill="var(--fill-0, white)"/>
<path id="Vector_3" d="M186.229 0.347635C186.229 0.347635 186.187 0.364341 186.17 0.372694C186.154 0.389399 186.137 0.406105 186.112 0.414458C186.145 0.389399 186.187 0.364341 186.229 0.339282V0.347635Z" fill="var(--fill-0, white)"/>
<path id="Vector_4" d="M185.813 0.854321C185.796 0.928893 185.78 1.00346 185.78 1.07804C185.78 1.00346 185.788 0.928893 185.813 0.854321Z" fill="var(--fill-0, white)"/>
<path id="Vector_5" d="M186.145 0.165259H186.137L184.494 0.91926L183.001 1.59869H183.01L186.145 0.165259Z" fill="var(--fill-0, white)"/>
<path id="Vector_6" d="M741.842 0.920514L740.465 1.55023H740.49L743.542 0.158228C743.542 0.158228 743.509 0.158228 743.493 0.166513L741.842 0.920514Z" fill="var(--fill-0, white)"/>
<path id="Vector_7" d="M930.6 0.91974C930.6 0.845169 930.591 0.770597 930.566 0.704311C930.566 0.679454 930.55 0.654597 930.542 0.638025C930.525 0.588311 930.508 0.546882 930.484 0.505454C930.467 0.480597 930.45 0.455739 930.434 0.439168C930.409 0.406025 930.376 0.364596 930.343 0.339739C930.318 0.323168 930.301 0.298311 930.276 0.281739C930.26 0.265168 930.243 0.248596 930.218 0.24031C930.202 0.223739 930.177 0.223739 930.16 0.207168C930.143 0.207168 930.135 0.190596 930.119 0.18231L929.837 0.0580245H929.696L927.771 0.936311L870.534 27.1192L836.777 42.5555L813.055 31.7095L746.105 1.06888L744.14 0.149167L744.173 0.132596L743.882 2.44141e-05L743.534 0.157453C743.725 0.0828817 743.941 0.0745959 744.131 0.157453L743.766 0.323168C743.766 0.323168 743.741 0.339739 743.725 0.348025C743.708 0.356311 743.683 0.364596 743.667 0.372882C743.65 0.389454 743.634 0.406025 743.609 0.414311C743.584 0.430882 743.559 0.447454 743.542 0.472311C743.509 0.505454 743.484 0.538597 743.451 0.57174C743.435 0.596597 743.418 0.613168 743.401 0.638025C743.377 0.679454 743.36 0.729168 743.343 0.770597C743.335 0.795454 743.327 0.812026 743.319 0.836883C743.302 0.911454 743.285 0.986026 743.285 1.0606V112.528L657.566 151.869L651.163 154.811L650.176 154.363L558.376 112.379C558.152 112.28 557.903 112.28 557.68 112.379L557.348 112.537L471.628 151.877L465.3 154.786H465.283L464.86 154.993C464.843 154.993 464.835 155.009 464.819 155.018C464.802 155.026 464.777 155.034 464.761 155.043C464.744 155.059 464.727 155.076 464.703 155.084C464.678 155.101 464.653 155.117 464.636 155.142C464.603 155.175 464.578 155.208 464.545 155.241C464.528 155.266 464.512 155.283 464.495 155.308C464.47 155.349 464.454 155.399 464.437 155.44C464.429 155.465 464.42 155.482 464.412 155.507C464.396 155.581 464.379 155.656 464.379 155.73V267.264L378.825 306.53L372.497 309.439H372.48L372.057 309.646C372.041 309.646 372.032 309.662 372.016 309.671C371.999 309.679 371.974 309.687 371.958 309.696C371.941 309.712 371.924 309.729 371.9 309.745C371.875 309.762 371.85 309.778 371.833 309.803C371.8 309.836 371.775 309.87 371.742 309.903C371.725 309.928 371.709 309.944 371.692 309.969C371.667 310.01 371.651 310.06 371.634 310.102C371.626 310.126 371.618 310.143 371.609 310.168C371.593 310.242 371.576 310.317 371.576 310.392V421.86L285.856 461.2L279.528 464.108L278.616 463.694L186.816 421.71C186.592 421.611 186.344 421.611 186.12 421.71L185.788 421.868L100.068 461.208L93.7398 464.117H93.7232L93.3002 464.324C93.2836 464.324 93.2753 464.34 93.2587 464.349C93.2421 464.357 93.2172 464.365 93.2006 464.374C93.1841 464.39 93.1675 464.407 93.1426 464.415C93.1177 464.432 93.0928 464.448 93.0762 464.473C93.0431 464.506 93.0182 464.539 92.985 464.572C92.9684 464.597 92.9518 464.614 92.9352 464.639C92.9104 464.68 92.8938 464.73 92.8772 464.771C92.8689 464.796 92.8606 464.813 92.8523 464.838C92.8357 464.912 92.8191 464.987 92.8191 465.061V576.612L7.26529 615.878L0.488993 618.985C0.488993 618.985 0.464111 619.002 0.447523 619.01C0.406052 619.035 0.372876 619.06 0.331405 619.085C0.306523 619.101 0.28164 619.118 0.265052 619.143C0.231876 619.176 0.206993 619.209 0.173817 619.242C0.157229 619.267 0.14064 619.283 0.124052 619.308C0.0991699 619.35 0.0825816 619.399 0.0659934 619.441C0.0576993 619.466 0.0494052 619.482 0.041111 619.507C0.0245228 619.582 0.00793457 619.656 0.00793457 619.731V733.022L0.688052 732.707L91.5252 774.251L93.1758 773.497C93.3499 773.415 93.549 773.406 93.7315 773.456L93.3085 773.655C93.3085 773.655 93.2836 773.671 93.267 773.68C93.2504 773.688 93.2255 773.696 93.2089 773.705C93.1923 773.721 93.1758 773.738 93.1509 773.746C93.126 773.763 93.1011 773.779 93.0845 773.804C93.0514 773.837 93.0265 773.87 92.9933 773.903C92.9767 773.928 92.9601 773.945 92.9435 773.97C92.9186 774.011 92.9021 774.061 92.8855 774.102C92.8772 774.127 92.8689 774.144 92.8606 774.169C92.844 774.243 92.8274 774.318 92.8274 774.392V886.374C92.8274 886.697 93.0182 886.995 93.3085 887.128L93.5905 887.252L186.136 929.576C186.136 929.576 186.161 929.576 186.178 929.584C186.277 929.625 186.377 929.65 186.485 929.65C186.592 929.65 186.692 929.625 186.791 929.584C186.808 929.584 186.816 929.584 186.833 929.576L279.379 887.252L371.924 929.576C371.924 929.576 371.949 929.576 371.966 929.584C372.065 929.625 372.165 929.65 372.273 929.65C372.381 929.65 372.48 929.625 372.58 929.584C372.596 929.584 372.605 929.584 372.621 929.576L465.167 887.252L557.713 929.576C557.713 929.576 557.738 929.576 557.754 929.584C557.854 929.625 557.953 929.65 558.061 929.65C558.169 929.65 558.268 929.625 558.368 929.584C558.385 929.584 558.393 929.584 558.409 929.576L651.03 887.219L743.65 929.576C743.65 929.576 743.675 929.576 743.692 929.584C743.791 929.625 743.891 929.65 743.999 929.65C744.106 929.65 744.206 929.625 744.306 929.584C744.322 929.584 744.33 929.584 744.347 929.576L836.901 887.244L929.455 929.576C929.563 929.625 929.687 929.65 929.803 929.65C929.961 929.65 930.119 929.609 930.251 929.518C930.492 929.368 930.633 929.103 930.633 928.822V928.159L928.974 927.529L837.805 885.835V775.677L928.974 817.37V817.428L930.633 818.182V817.221V815.398L929.638 815.854L908.421 806.151L838.966 774.384L929.803 732.69L930.633 733.071V731.174H930.475L930.152 731.025C929.928 730.925 929.679 730.925 929.455 731.025L929.157 731.166H928.974L837.805 772.859V662.552L928.974 620.858L929.098 620.8L930.143 620.319C930.143 620.319 930.193 620.286 930.218 620.269L930.625 620.079V619.565C930.625 619.549 930.625 619.532 930.625 619.515C930.625 619.499 930.625 619.482 930.625 619.474V618.811L928.966 618.182L837.797 576.488V466.329L928.966 508.023V508.081L930.625 508.835V507.874V506.051L929.629 506.506L912.394 498.627L838.958 465.045L929.795 423.351L930.625 423.732V421.835H930.467L930.143 421.685C929.92 421.586 929.671 421.586 929.447 421.685L929.148 421.826H928.966L837.797 463.52V353.212L928.966 311.518L929.098 311.46L930.143 310.98C930.143 310.98 930.193 310.947 930.218 310.93L930.625 310.74V310.226C930.625 310.209 930.625 310.201 930.625 310.184C930.625 310.168 930.625 310.16 930.625 310.151V309.488L928.966 308.859L837.797 267.165V157.006L928.966 198.7V198.758L930.625 199.512V198.551V196.728L929.629 197.184L908.413 187.481L838.958 155.714L929.795 114.02L930.625 114.401V112.504H930.467L930.143 112.354C929.92 112.255 929.671 112.255 929.447 112.354L929.148 112.495H928.966L837.797 154.189V43.9061L928.966 2.21231L929.09 2.15431L930.135 1.67374C930.135 1.67374 930.185 1.6406 930.21 1.62403L930.616 1.43346V0.91974H930.6ZM870.534 336.434L836.777 351.87L813.055 341.024L746.105 310.408L836.943 268.714L927.78 310.259L870.542 336.434H870.534ZM887.984 637.81L836.785 661.226L817.932 652.609L746.114 619.764L836.951 578.07L927.788 619.615L887.993 637.81H887.984ZM773.003 802.547L743.8 815.904L720.078 805.058L653.128 774.442L743.965 732.748L834.803 774.293L773.003 802.555V802.547ZM587.124 802.522L557.87 815.904L536.654 806.201L467.199 774.434L558.036 732.74L648.873 774.285L587.132 802.522H587.124ZM215.555 802.522L186.302 815.904L162.581 805.058L95.6308 774.442L186.468 732.748L277.305 774.293L215.564 802.531L215.555 802.522ZM278.466 576.529L187.297 618.223V507.915L278.466 466.221V576.529ZM278.607 662.75V772.909L187.438 731.215V621.057L278.607 662.75ZM280.274 662.593L371.443 620.899V731.207L280.274 772.901V662.593ZM320.808 642.235L279.279 661.226L260.427 652.609L188.608 619.764L279.445 578.07L370.282 619.615L320.816 642.235H320.808ZM373.227 621.057L464.396 662.75V772.909L373.227 731.215V621.057ZM467.199 465.078L558.036 423.384L648.873 464.929L614.021 480.87L557.87 506.548L540.627 498.66L467.199 465.078ZM558.866 507.915L650.035 466.221V576.529L558.866 618.223V507.915ZM651.975 466.37L743.144 508.064V618.223L651.975 576.529V466.37ZM651.843 463.553V353.245L743.012 311.552V421.86L651.843 463.553ZM559.015 621.057L650.184 662.75V772.909L559.015 731.215V621.057ZM744.795 507.915L835.964 466.221L836.096 466.163H836.113V576.537H835.964L744.795 618.231V507.923V507.915ZM773.003 493.191L743.8 506.548L724.939 497.922L653.128 465.078L743.965 423.384L834.803 464.929L773.003 493.191ZM700.305 329.258L650.847 351.878L627.126 341.032L560.176 310.416L651.013 268.723L741.85 310.267L700.313 329.267L700.305 329.258ZM650.035 267.198L558.866 308.892V198.584L650.035 156.89V267.198ZM650.184 353.395V463.553L559.015 421.86V311.701L650.184 353.395ZM557.223 421.86L466.054 463.553V353.245L557.223 311.552V421.86ZM557.207 508.064V618.223L466.038 576.529V466.37L557.207 508.064ZM464.246 576.529L373.077 618.223V507.915L464.246 466.221V576.529ZM465.059 661.226L447.832 653.346L374.388 619.756L465.225 578.062L556.062 619.607L506.596 642.227L465.067 661.218L465.059 661.226ZM466.054 662.593L557.223 620.899V731.207L466.054 772.901V662.593ZM650.847 661.226L631.995 652.609L560.176 619.764L651.013 578.07L741.85 619.615L685.691 645.301L650.856 661.234L650.847 661.226ZM651.843 662.593L743.012 620.899V731.207L651.843 772.901V662.593ZM836.113 772.909L744.944 731.215V621.057L836.113 662.75V772.909ZM836.113 463.553L744.944 421.86V311.701L836.113 353.395V463.553ZM836.096 156.824H836.113V267.198H835.964L744.795 308.892V198.584L835.964 156.89L836.096 156.832V156.824ZM94.4862 662.593L185.655 620.899V731.207L94.4862 772.901V662.593ZM836.113 44.0552V154.214L744.944 112.52V2.36146L836.113 44.0552ZM743.965 114.053L834.803 155.598L773.003 183.86L743.8 197.217L720.078 186.371L653.128 155.755L743.965 114.061V114.053ZM743.136 198.733V308.892L651.967 267.198V157.039L743.136 198.733ZM558.036 114.053L648.873 155.598L601.373 177.323L557.879 197.217L536.662 187.514L467.207 155.747L558.044 114.053H558.036ZM557.207 198.733V308.892L466.038 267.198V157.039L557.207 198.733ZM465.225 268.714L556.062 310.259L521.21 326.201L465.059 351.878L443.843 342.176L374.388 310.408L465.225 268.714ZM464.396 353.395V463.553L373.227 421.86V311.701L464.396 353.395ZM372.248 423.392L463.085 464.937L428.233 480.879L372.082 506.556L354.839 498.668L281.411 465.086L372.248 423.392ZM371.419 508.064V618.223L280.25 576.529V466.37L371.419 508.064ZM186.468 423.392L277.305 464.937L242.453 480.879L186.302 506.556L167.441 497.931L95.6308 465.086L186.468 423.392ZM185.639 508.064V618.223L94.4696 576.529V466.37L185.639 508.064ZM93.6568 578.07L184.494 619.615L135.028 642.235L93.4992 661.226L74.6467 652.609L2.81964 619.764L93.6568 578.07ZM92.8274 662.75V772.909L1.65846 731.215V621.057L92.8274 662.75ZM94.4696 775.726L185.639 817.42V927.579L94.4696 885.885V775.726ZM278.466 885.885L187.297 927.579V817.271L278.466 775.577V885.885ZM280.258 775.726L371.427 817.42V927.579L280.258 885.885V775.726ZM372.09 815.904L350.874 806.201L281.419 774.434L372.256 732.74L463.093 774.285L401.352 802.522L372.099 815.904H372.09ZM464.246 885.885L373.077 927.579V817.271L464.246 775.577V885.885ZM466.038 775.726L557.207 817.42V927.579L466.038 885.885V775.726ZM650.035 885.885L558.866 927.579V817.271L650.035 775.577V885.885ZM651.975 775.726L743.144 817.42V927.579L651.975 885.885V775.726ZM744.795 927.579V817.271L835.964 775.577L836.096 775.519H836.113V885.893H835.964L744.795 927.587V927.579Z" fill="var(--fill-0, white)"/>
</g>
</svg>
